<?xml version="1.0" encoding="utf-8"?>
<!-- Generator: Adobe Illustrator 16.0.0, SVG Export Plug-In . SVG Version: 6.00 Build 0)  -->
<!DOCTYPE svg PUBLIC "-//W3C//DTD SVG 1.1//EN" "http://www.w3.org/Graphics/SVG/1.1/DTD/svg11.dtd">
<svg version="1.1" id="Layer_1" xmlns="http://www.w3.org/2000/svg" xmlns:xlink="http://www.w3.org/1999/xlink" x="0px" y="0px"
	 width="376px" height="457px" viewBox="0 0 376 457" enable-background="new 0 0 376 457" xml:space="preserve">
<g>
	<defs>
		<rect id="SVGID_1_" width="376" height="457"/>
	</defs>
	<clipPath id="SVGID_2_">
		<use xlink:href="#SVGID_1_"  overflow="visible"/>
	</clipPath>
	<path clip-path="url(#SVGID_2_)" fill="#231F20" d="M59.8,1.5l19.5,48.9c0.2,1.2,0.45,2.725-1.2,2.9
		c-3.35,0.825-10.225,0.075-8.2,5.5c3,24.3,5.6,48.8,8.9,73c2,1.1,4.3,0,6.5,0c11.5-1.9,24.3-7,29-19.2c5.8-19.1-2-37.9-10.3-53.8
		c-3.5-0.4-6.4,2.7-10.1,2l-0.7-1l-2.2-36c0.2-0.8,0.6-1.2,1.2-1.7h1.5l31.2,24v2.4l-7.2,5.1v1.2C132.8,74,142,102,130.6,126
		c-8.8,18.1-28.6,22.9-45.6,27.9l-4.5,0.9c0.9,22.1,3.7,44.1,5,66.3c2.4,1.4,4.9,2,7,4.1c9.7,10.2,19.2,21.3,30,30.399
		c16.1-5.8,30.5-15.499,45.3-24.399c-2.5-3.8-7-7.3-4.5-12.5c3.8-5.9,4.5-13.6,3.3-20.9c-9.3-5.4-17.2-15.2-23.5-23.8
		c-8.5-6.1-24-11.5-22.3-24.9c0.5-2.4,2.6-3.9,4.6-5.3c2.7-1,6.2-1.4,8.6,0.5l7.4,7.7c-0.09-1.881-0.08-3.407,0.32-4.707
		c1.4-3.1,4.38-5.093,6.48-7.793c-2.4,0-6.29,3.781-7.5,1.2c-0.7-2.4,1.9-3.8,3.4-4.8c7.4-4.2,15.5-6.6,24-8.2
		c1.8-1.9,2.7-4.2,3.3-6.7c0.791-7.045,4.421-14.089-0.928-21.707C161.372,85.693,154.3,66,165,50.7c9.6-9.3,22.5-10.8,35.7-11.5
		c5.199-0.5,9.8,0.6,14.7,0.9c4.3-7.1,7.8-15.8,15.999-19.9c2.7-0.4,4.601,1.4,6,3.4c4.2,7.2,6,15.5,10.801,22.5
		c20.199-2.1,43.6-3.6,59.6,8.7c19,12.1,34.9,31.4,39.3,52.5l1.2,0.7c8.7,0.2,16.8-0.6,23.5-5c1.101-0.1,2.3,0.1,2.7,1.2
		c3.2,15.6-4,29.3-14.7,40.3c-3.7,3.2-7.8,5.4-12,7.5c-1.4,13.6-7,26.2-18.2,35.2c-12.8,8.9-26.8,15-40.3,22.1
		c0.2,17.1,6.6,31.799,15.8,45.1c-0.8,2.199-2.699,3.3-4.3,5.1c-8.2,7-20.8,9.2-31.2,5.3c-1.899-1.3-4.899-1.1-5.8-3.899
		c-4.6-13.101-4.1-28.7-4-43.4c-10.2,2.9-21.3,3.3-30,9.6c-6.3,8.3,5.7,8.8,8.8,13.7c16.9,14.5,34.8,31.2,41.8,51.101
		c3.9,10.899-1,22-9.1,29.5c-4.899,3.699-10.5,5.8-16.3,7.199v1c10.2,13.301,16.7,31.9,9.3,48.7c-0.6,4.101-6.1,8.2-0.899,12
		c0.999,0.8,1.5,3.2,3.1,2.4c17.6-7.2,35.3-14.101,55.2-15.601c10.399,1.101,21.2,1.5,29.699,7.2c2.5,2,2.4,5.3,2.001,8.101
		c-2.2,6-8.301,10.199-13.2,14c-20.801,12.5-48.4,14.199-73.5,10.5c-4.4-0.801-8.601-2-12.7-3.601c0.4,3.7,1.5,8.101,0.7,12.3
		c-2.101,9.2-8.601,16.601-14.9,24.2c-5.4,4.8-12.9,9.101-20.1,5.3c-3.4-3.1-1.801-8.8-0.5-12.3l-0.5-0.399
		c-7.2,5.199-17.101,9.1-26.101,5c-1.699-1.301-1.899-3.4-1.699-5c-4,0.3-10.8,2.8-13.201-2.2c-1.1-4.601,3.2-7.9,6.5-10.601
		c4-2.8,9-3.699,12.899-7.199c1.601-1.301,3.9-1.2,5.101-2.801c-3.3-1.699-6.7-3.1-9.601-5.6c-2.899,0-5.6,1.5-8.399,2.2
		c-15.6,4.399-31.8,7.3-47.8,10.8c-6.6,3.5-14.5,3.8-21.6,6.2c-1.8,0.1-3.7,0.1-5-0.9c-0.8-1.2-1.7-2.6-1-4.1
		c0.8-1.9,1.8-3.601,3.1-5.3c-2.9,0.1-6.2,1.399-9.3,1c0.9,3-0.8,5-3.2,6.699c-5.1,2.9-12.9,3-17.7-0.699L70.2,267.6
		c-3.3-1.5-5.9-4.899-6.5-8.399c-0.1-2,0.1-3.9,0.7-5.7c-2.4-1.4-5.8-3.4-5.5-6.7c0.1-2.6,1.4-4.8,3.3-6.3c-2.1-1.2-4.3-3.6-4.8-6.2
		c-0.7-5.1,2.2-9.1,6.3-11.8c3.6-0.4,2.7-3.3,2.9-6.2L62.2,156l-0.4-0.4c-23.5-0.3-48.6-6.8-58.4-30C-3.1,103.3,2.7,79,8.7,58.4
		l-7.4-4.1v-2.4c9-9.4,17.2-19.4,26.4-28.6c1.1-0.2,2,0.3,2.4,1.2l3.3,39.1c-2.5,2.8-6-0.7-9.1-0.7c-1.2-0.7-2.5,0.2-2.6,1.5
		c-4.5,18.8-10.5,45.9,6.9,60.4c8.4,6.3,19,7.7,29.8,8.2c-0.5-25.4-1.7-51.1-2.6-76.6L55.3,56c-3.7-0.7-7.9,1.5-10.6-1v-3.4
		c3.7-16.8,7-33.9,11.1-50.6C56.5-0.7,59.2,0,59.8,1.5L59.8,1.5z M90.8,267.6c-0.2-0.399-0.9-0.699-1.2-0.199l12,142.3
		c6.4-7.5,16.3-8.101,23.8-12.9c-3.9-2.8-7.5-6.8-7.5-11.8c1.6-13.6,11.9-23.6,19.2-34.8l0.3-1.4c-3.6-11.1-5.1-24.5-2.7-36.5
		c0.7-3.3,1.6-6.899,1.9-9.899c-7.6,2.5-17.1,5.6-25.2,2C99,295.2,95.1,281,90.8,267.6L90.8,267.6z"/>
	<path clip-path="url(#SVGID_2_)" fill="#FE5376" d="M58.2,5.3C64,20.4,70.4,35.4,75.9,50.7c-3.2,0.8-6.5,1.2-9.6,2.4
		c3,27.5,6.4,54.8,10.1,82.1c10.7,0.3,20.6-2.6,29.3-7.7c11.6-7.7,14.9-20.4,13.4-33.9c-1.7-13.9-7.3-26.1-13.7-38.1l-0.7-0.5
		c-2.9,0.8-5.6,2.2-8.6,2.6c-0.6-10.3-1.9-20.8-1.7-31.2c8.9,6.9,18,13.5,26.9,20.7v0.5l-7.5,5.5c2.7,6,7.2,11.3,10.4,17
		c10.5,16.8,12.3,43,1.2,60c-12.5,14.3-29.9,18.4-47.1,22.3l-0.9,1l5.5,68.6c-0.5,2-2.7,3.8-3.6,5.8c-1,1-0.8,2.799-2.2,3.1
		c-1.1-5.201-9.5-0.2-7.4-6.9l-5.1-70.4l-0.9-0.9c-22.3,0-44.8-4.5-56.4-25c-8.8-22.8-1.5-48.9,4.8-70.5c-2.4-1.9-5.6-2.8-7.5-4.8
		c7.4-8.2,15.2-16.7,22.8-24.3l3.2,33.1c-3.3-0.1-6.6-1.5-10.1-1.6c-2.1,4.9-3.1,10.5-4.3,15.8c-3.5,18.1-5,41.5,12.4,53
		c9.6,5.9,20.7,7.7,32.7,7.7l0.5-0.5l-3.2-82.3l-0.7-0.5l-10.3,0.3L57.7,5.3H58.2L58.2,5.3z"/>
	<path clip-path="url(#SVGID_2_)" fill="#FE5376" d="M239.4,32.2c1.699,4.8,3.999,9.4,6,14.2c-2.9-0.1-5.601,1-8.2,0.9
		c-6.101-3.1-12.5-5.3-19.2-6.7c0.5-3.1,3.1-5.9,4.6-8.9c2.4-3.5,5.5-7.5,9.301-9.6C236.5,23.3,237.399,28.6,239.4,32.2L239.4,32.2z
		"/>
	<path clip-path="url(#SVGID_2_)" fill="#FE5376" d="M291,108c1.1,2.3,1.2,5,2.8,7c1.2,0.2,1.2-1.3,0.8-1.9
		c-9.1-24.8-29.2-49.4-53.1-63.6l0.7-0.5c21.899-2.6,48.6-5.1,65.8,9.6c17,11.8,30.6,29.1,34.8,48.2c-1.9,0.2-3.7-1.7-5.5-2.6
		c-4-1.4-8.1-3.2-12.7-2.2v0.3c4.5,0.6,9.101,1.2,12.7,4.1c-7.6,0.3-15.1,4-19.2,11.2c-3.899,7.5-5.399,18.6,0.5,25.7
		c6.4,7.2,14.9,9.6,24.4,9.4c-0.601,9.8-5,18.7-11,26.6c-12.9,11.1-27.5,18-42.2,24.7c0.3-4.2,1.2-8.1,1.9-12.2
		c-0.301-0.2-0.601-0.7-1-0.5l-0.5,0.5c-5.8,21.899,0,45.1,11.8,62.6c-6.7,7.1-15.601,10.399-25.7,9.199
		c-3.5-1.1-7.7-1.5-10.1-4.399c-5.5-20.5-3.601-45.3-1.601-66.9C268,167,276,143.7,278,117.9c0.8-27.7-28.9-45-50.4-53.5
		c-15.1-6-36.8-8.8-50.6,1.4l0.7,0.7c14.6-9.2,35.6-6.2,50.6,0V67c-11.5,1.6-23,3.2-31.9,11c-4.6-1-8.6,1.3-11.5,4.6
		c-5.1,6.1-7.6,13.4-9.9,20.4c-9.6-13.4-17.4-33.3-7.9-49.4c8.4-9.2,20.5-10.1,32.2-11.6C240.1,39.4,274.899,74.1,291,108L291,108z"
		/>
	<path clip-path="url(#SVGID_2_)" fill="#BF8464" d="M249.399,77.3c15.4,10.2,29.101,25.6,26.2,45.1c-4.5,31.1-15.1,59.6-15.8,92.2
		c-10.2,4-22.1,4.2-31.2,10.8c-2.899,1.5-2,4.899-2.2,7.2C224.7,232.4,222.7,232.8,221.4,234c-0.2,0.8,0.6,1,0.899,1.5
		c5-2.3,8.2,2.7,12,4.5c17.4,14,35.7,31.4,43.7,51.2c3.7,8.7,1.1,18.899-5,25.6c-5.4,6-12.3,8.3-19.5,9.9
		c-5.5-9.101-13.601-17.4-15.101-27.9l17.801,9.4c0.6-0.101,1.3,0.3,1.6-0.5c0.4-1.2-1-2.101-1.899-2.4
		c-15.501-7.899-32.9-20.1-41.001-36.7c-0.699-0.199-0.999,0.4-1.5,0.7c3.9,10.3,11.601,20.3,21.4,26.9
		c1.7,2.8,1.601,6.399,2.9,9.399c8,16.2,21.5,30.101,26.899,47.5c3.7,21-5.899,40.101-23.3,51.301c-1.5,1.1-3.6,1.399-4.3,2.899
		c2.6-0.6,5.4-2.3,7.899-4.1c1.801,1.1,3,3.3,4.101,5.1c4,6.3,5.7,15.9,1.6,22.8c-0.699,1.9-2.199,3.7-3.3,5.301
		c-0.399-3-1.6-6-4.6-7.5c-7.2-1.801-14.101,1.5-19.2,7c0.3-3.101-0.9-6.101-3.8-7.5c-2.2-1.2-5.4-0.601-7.9-0.4
		c1.6-1.4,4.1-2.1,5.7-3.4l-0.5-0.5c-4.101,1.2-7.9,3.101-11.7,5.101c-0.7-1.3-1.4-3.3-3.1-3.9c-1.2-0.6-2.601-0.8-4.101-0.7
		c2.101-1.6,4.8-2.699,7.4-3.8c8.3,1.8,18.7,1.601,27.1,0.2c0.3-0.3,0.7-0.5,0.5-1c-13.899,1.2-29.1,1.2-39.6-8.1
		c-2.4-2.301-3.101-5.601-2.4-8.9c6.301-17.9,22.3-31.9,35.8-46.8c-1.8-1-3.3,1.7-4.8,2.899c-0.399,0.2-0.6,0.9-1.2,0.7
		c2.9-37.399-18.399-66.3-15.1-104.2c1-9.399,3.4-18.3,6.2-27.1c11.3-7.5,23.5-12.8,34.8-20.4c4.9-3.9,9.2-8.9,8.4-15.1
		c-2.801-8.2-11.9-9.1-19.2-10.6c-8.2-1.9-17.2-1.5-24.2-6.2c-8.399-8.2-15.3-17.7-24.3-24.7c-10.2-5.7-18.6,3.3-28.5,3.3
		c-4.8,0.3-11.3,2-15.2-1.4c-0.7-6.6,4.726-11.931,8.926-16.531c-4.856,0.655-7.019,1.468-10.826,3.531c-1.1-2,1.8-2.8,2.9-3.8
		c7.3-3.9,16-5.2,24.2-6.2c1.1,0.1,1.7-1.1,2.2-1.7c1,1.1,0.1,4.7,0.7,6.5c-1.1-0.5-2.1-2.7-3.3-1.5v0.5c4.1,3.8,7.9,7.8,8.4,13.2
		c0.4,0.5,0.9,0.8,1.6,0.7c0.9-0.3,0.3-1.2,0.5-1.9c4-1.7,8.355-10.643,9.855-14.143c5.707-15.045,3.415-30.496,3.415-30.496
		s-0.191-5.516-3.67-7.161c-2.993-1.03-3.6-0.2-5,0.4c-0.9,0.7-2.6,1.8-1.7,3.2c-1,1.4-1.9,2.8-2.9,4.3c-0.5,1-1.1,2.1-1.7,3.1
		c1.9-8.5,5-17.9,12.8-24c2.399-1.1,5.199-1.4,7.6-0.2c2.9,2.9,3.6,6.7,3.2,11c0.2,0.2,0.3,0.6,0.7,0.5c1.1-4.5,0.2-9.3-1.9-13
		c11.101-7.2,24.8-8.4,38.8-8.6L249.399,77.3L249.399,77.3z"/>
	<path clip-path="url(#SVGID_2_)" fill="#231F20" d="M261.2,100.8c6.3,10.4,2.6,24.8,6,36.3c0.1,0.6,0.899,1.2,0.199,1.9
		c-1.3-0.5-1.199-2.4-1.899-3.6c-3.2-13.6,0.268-34.905-14.9-38.4c-4.899-0.8-9.699,0.2-13.899,1.9c-0.801-0.3-0.2-0.7,0-1.2
		C244,94.4,255.9,91.9,261.2,100.8L261.2,100.8z"/>
	<path clip-path="url(#SVGID_2_)" fill="#FFFFFF" d="M190.619,104.607c0.6,8.5-1.105,15.29-3.405,22.69
		c-1.8-1.2-5.879-0.99-7.214-0.208c-4.3,2.7-4.9,7.411-4.5,11.911c-4.2-13.6,0.6-27.7,7.7-38.6c1.4-1.2,2.6-3.5,4.6-2.7
		C189.3,99.3,190.357,101.595,190.619,104.607L190.619,104.607z"/>
	<path clip-path="url(#SVGID_2_)" fill="#FE5376" d="M373.3,107.8c0.5,17.1-9.7,34.1-25.899,40.8c-9.7,1.9-20.301-0.2-26.9-8.2
		c-3.8-5.5-3.2-14.3-0.5-20.1c2.6-6.1,8.899-10.2,15.1-11.1c12.101,0.7,25.5,2.5,35.8-3.3C372.6,103.7,373.2,106.6,373.3,107.8
		L373.3,107.8z"/>
	<path clip-path="url(#SVGID_2_)" fill="#231F20" d="M252.1,116c9.3,16.9,3.2,38.9-8.7,52.8c-0.5,0.7-1.6,1.2-1.6,2.1
		c6.2,0.2,13.6,0,17.7,4.8c-8.4-5.1-20-2.6-29.3-1.2c-4.5,1.9-10.3,2.7-14.8,0.3c-9.7-7.2-11.501-19.5-9.601-31
		c2.101-12.5,9.3-25.8,22-31c0-1.2-0.1-3.7,2-3.8C238,106.5,247.2,108.6,252.1,116L252.1,116z"/>
	<path clip-path="url(#SVGID_2_)" fill="#FFFFFF" d="M251.1,120c4.3,7.2,4.2,17.9,1.9,26c-2.5-1.1-5.7-2.4-9.1-2.2
		c-3.601,0.5-7.001,2.9-9.101,6.2c-3.1,5.1-2.6,12.5,0.5,17.3c0.9,1.2,2,2,3.1,2.899c0.2,0.601-0.499,0.8-0.699,1.201
		c-8-0.7-16.101,7.7-23.101,0.2c-8.8-8.4-8.8-23.2-5.199-34c2.8-11.3,13.699-23.2,25.6-24.8C241.7,112.1,247.8,114.2,251.1,120
		L251.1,120z"/>
	<path clip-path="url(#SVGID_2_)" fill="#FFFFFF" d="M182.185,128.702c0.879,3.132-1.092,6.659-2.532,8.198
		c-1.639,1.043-1.852-0.752-1.852-0.752c-0.383-3.573,1.263-5.867,3.143-7.496C181.688,128.007,182.185,128.702,182.185,128.702
		L182.185,128.702z"/>
	<path clip-path="url(#SVGID_2_)" fill="#7F7086" d="M136.6,150.3c8.9,8.8,18.7,17.6,26.9,26.9l0.5-0.5c-4.7-6.6-11-12.5-16.6-18.7
		c10.4-0.2,20.1-1.9,28.8-6c7-1.3,12.9,1.3,17.3,6.9l17.8,18.7c11.9,6.8,27.9,3.9,39.3,11.8c1.7,1.4,2.301,3.299,2.7,5.3
		c-0.399,5.1-4.899,9-8.9,12.2C227.7,217.8,209.4,225.1,194,239.1c-2.9,1.801-6.4,3.601-10.1,2.101c-7.7-3.3-14.8-10.7-19.2-18
		c-0.3-6.4,5.4-10.3,4.3-17V200c1.9,0.7,3.8,1.9,5.3,3.1c0.4,5.7-2.3,10.2-4.1,15.1c-0.7,5.4,4.8,9.101,8.4,12.701
		c10.7,7.199,21.5-1.3,29.799-7.7c10.301-10.3,21.7-18,32.601-26.6c0.8-0.4,2.399-1.4,2.7,0.2c1.199,1.7-0.5,4.899,1.399,5.8
		c1.5-2.6,0.4-6.1-0.899-8.4c-3.2-4.1-7.7-5.899-12.801-5.8c-0.5,0.5-0.8,1-0.699,1.7c1.6,0.7,3.6,0.7,5.3,1c2,0.8,4.1,1.5,5.8,3.1
		v0.7c-18.6,10-44.7,15.5-65.6,6.5c-12.3-6.6-24.9-18.4-31.9-30.7c-3.9-5-9-10.3-14.1-13.9c-0.6,0.4-0.9,1-1,1.6
		c3.4,2.7,6.7,6.2,9.601,9.4c-6.2-3.1-16.2-9.1-15.601-17.8c0.8-2.5,3.5-4.7,6.2-4.8C132.4,145.5,134.4,148.2,136.6,150.3
		L136.6,150.3z"/>
	<path clip-path="url(#SVGID_2_)" fill="#FFFFFF" d="M244.2,149.6c0.3,1.6-0.4,2.8-1.2,4c-1.4,1.2-2.9,2.6-4.8,1.7
		c-1.2-0.8-1.101-2.4-0.801-3.6c0.9-1.8,2.7-3.2,4.601-3.6C242.8,148.3,243.9,148.6,244.2,149.6L244.2,149.6z"/>
	<path clip-path="url(#SVGID_2_)" fill="#231F20" d="M193.8,176.2v0.7c-0.733-0.849-1.8-1.8-2.899-2.4c-1-0.3-2.9-0.6-3.4,0.7
		c-0.276,1.153,1.276,2.533,2.4,2.9c1.163,0.281,3.399-0.5,2.899,1.7c-1.2,0.8-2.987,0.177-4.3-0.5c-1.5-1.2-2.7-2.7-2.2-4.8
		c1-1.7,3.081-1.66,4.601-0.9C192,174.2,193.1,175.1,193.8,176.2L193.8,176.2z"/>
	<path clip-path="url(#SVGID_2_)" fill="#F9B5C0" d="M230.5,201.9v0.5c-7.7,5.6-15,12-22.3,18.4c-2.101-3.9-1.4-9.6,0.899-13.2
		c2.2-1.3,5-1.2,7.5-1.9c4.601-1,9.101-2.7,13.601-4.1L230.5,201.9L230.5,201.9z"/>
	<path clip-path="url(#SVGID_2_)" fill="#CD898F" d="M190.6,207.4c3.601,5,8.7,8.6,14,10.6c0.5,1.6,1.801,3.3,1.601,5
		c-6.801,4.7-13.7,10.7-22.8,8.6c-5.1-1.6-9.3-6.7-12-11.2c1.7-5.6,4.7-10.5,4.8-16.6C180.7,206,185.7,206.5,190.6,207.4
		L190.6,207.4z"/>
	<path clip-path="url(#SVGID_2_)" fill="#805D62" d="M206.2,207.4c-0.5,2.3-1.801,5-1.601,7.9c-3.899-1.7-8-3.9-10.6-7.7
		C198.1,207.6,202.3,207.8,206.2,207.4L206.2,207.4z"/>
	<path clip-path="url(#SVGID_2_)" fill="#BF8464" d="M66.6,223.5c0,1.7,1,3.5,0,5c2.1,1,4.2,0.1,6.4,0.7c1.7,0.6,3,2,3.6,3.6
		c-0.1,2-1.2,4.301-3.3,4.8c-3.3,1.9-8.6,1.7-11.8-0.199c-1.4-1.301-2.2-2.9-2.1-4.8C59.2,228.5,63,224.8,66.6,223.5L66.6,223.5z"/>
	<path clip-path="url(#SVGID_2_)" fill="#BF8464" d="M92,227.6c9.5,10,18.8,20.9,29.3,29.7c5.6,0.4,10-3.2,14.9-5.3
		c10.9-6.2,22-12.3,32.8-18.9c0.9,0.5,2.2,1.801,2.9,2.9c-14.3,19.7-26.1,40.6-33.8,63.1c-2.8,2-6.5,2.5-9.9,3.601
		c-5.2,1.1-12.1,2.2-16.8-1c-11.2-9.8-14.7-23.3-18.9-36.2c-0.6-1.3-2.1-0.5-3.1-0.7c-0.3-3.8-0.3-7.7-1-11.3
		c3.9-0.7,8.6-0.2,10.8-4.1c-1.2-0.801-1.9,0.8-2.9,1.199c-2.5,0.5-5.3,1-7.9,0.5c0.4-5.8-2.292-12.362,1.183-17.312
		c0.583-1.217-0.394-1.902-0.828-1.269c-2.2,3.899-3.155,8.681-7.355,11.381c-1.5,0.3-2.7-0.5-3.3-1.7c-0.9-7,2.3-13.9,7.7-18.5
		C88.2,224.3,90.1,225.8,92,227.6L92,227.6z"/>
	<path clip-path="url(#SVGID_2_)" fill="#F3CF96" d="M205.5,286.4c4.6,25.3,16.8,48.699,12.7,76.5c-11.101,11.3-23.5,22-28.8,35.8
		c-7-1.9-14-5.5-20.4-9.9C146.3,372.9,136.2,348.9,135.7,322.4c2.1-23.4,12.4-43.5,23.5-63.2c4.3-7.4,9.1-14.601,14.4-21.601
		c5.1,3.4,10.3,8,17,5.801c6.5-2.801,11.9-8.2,17.8-12.2C203.5,247.9,201.399,268.2,205.5,286.4L205.5,286.4z"/>
	<path clip-path="url(#SVGID_2_)" fill="#BF8464" d="M75.7,241.5c0.4,2.2,2.3,4.1,0.2,6.2c-1.2,2.1-3.4,2.899-5.3,3.899
		c-3.6,0.9-7.2-0.199-9.3-3.199c-0.6-2.101-0.2-4.301,1.7-5.7c2.4-3.101,7-0.9,9.8-2.9C73.9,240,75.2,240.2,75.7,241.5L75.7,241.5z"
		/>
	<path clip-path="url(#SVGID_2_)" fill="#FE5376" d="M99.9,426.8c-3.2,3.101-7.7,3.9-12.2,3.101l-3.4-1.2L72.8,268.4
		c3.3-0.2,7.1-0.2,8.6-3.601c1.1-5.399-5.2-8.1-8.4-11.6c4.6-1.101,4.5-8.4,9.4-7.601c0.9-0.3,1.4-1.699,2.4-1.699L99.9,426.8
		L99.9,426.8z"/>
	<path clip-path="url(#SVGID_2_)" fill="#BF8464" d="M77.8,260.4c0.8,1.1,2,2.1,1.5,3.6c-1.5,2.1-4.5,2.3-7,1.7
		c-2.9-0.5-5.5-2.9-6.5-5.7c-0.4-2-0.4-4.5,1-6C71.7,253.1,74.4,257.8,77.8,260.4L77.8,260.4z"/>
	<path clip-path="url(#SVGID_2_)" fill="#BF8464" d="M138.6,352.6c6.7,21.601,28.3,42.2,49.9,48.5c-0.5,3.801-0.3,7.801,1.4,11
		c-15.601,5.801-32.8,8.101-49.2,12c0.9-2.399,2.4-5.399,1.5-8.6c-1-2.4-3.5-4.1-5.8-4.6h-4.1c1.4-1.301,4-1.301,5.3-2.9l-0.5-0.4
		c-2.9,0.4-5.3,1.9-8.1,2.4c-0.5-1.6-1.4-3.2-2.9-4.1c-1.3-0.9-4.4,0-3.9-2.7l-0.9-1.601c2.7-0.899,5.3-4.399,8.4-2.399
		c13.8,6.899,30.5,9.899,47,7.399c0.3-0.3,0.7-0.5,0.5-1l-0.5-0.399c-19.5,2.1-38.3-1.9-52.8-14.2c-4.6-5.2-1.2-12.2,1.2-17.3
		C129.3,366.6,133.7,359.3,138.6,352.6L138.6,352.6z"/>
	<path clip-path="url(#SVGID_2_)" fill="#BF8464" d="M349,385c1.5,1,2.8,2.5,2.7,4.3c0.1,5.8-5.7,9.601-9.601,13.2
		c-17.899,13-40.8,14.7-64.1,13.7c-9.101-1-17.9-2.601-25.7-6.7c-1.5-2.5-3.3-5.3-5-7.9c4.2-3,8.1-7.399,11-11.6
		c1.5,1,2.3,3.2,3.601,4.6C269.3,403.7,279.7,406.7,291,404.9c0.6-0.101,0.9-0.801,0.9-1.4c-1.5-1.6-4.2,0-6.501-0.5
		c-6.999-0.1-12.999-2.8-18-7.9V394.4c16.2-6.5,32.601-12.601,50.4-15.2C329,379.4,339.9,380.2,349,385L349,385z"/>
	<path clip-path="url(#SVGID_2_)" fill="#231F20" d="M338.5,396.5c-3.1,3.4-6.601,5.7-10.6,7c-0.4-0.3-0.9-0.3-1.2-0.7
		c-0.3-0.899,0.699-1.7,1.5-1.7c5.5-1.6,11.199-5.8,13.899-11.3C342.3,392.1,340,394.4,338.5,396.5L338.5,396.5z"/>
	<path clip-path="url(#SVGID_2_)" fill="#7F7086" d="M120.3,404.4v0.5c-6.8,1.899-12.8,5.399-18.2,10.6c-0.8-3.1,2.4-5.1,4.3-7.2
		c4.1-2.3,8.1-5.5,13-5.3L120.3,404.4L120.3,404.4z"/>
	<path clip-path="url(#SVGID_2_)" fill="#7F7086" d="M126.6,409.7c1.3,2.1-1.8,2.2-2.2,3.899c-6.8,3.4-13.1,9.101-21.6,7.9
		c-0.7-0.4-0.5-1.9-0.2-2.7c5.6-6.399,12.8-11.899,21.6-11.2C125.2,407.8,126,408.9,126.6,409.7L126.6,409.7z"/>
	<path clip-path="url(#SVGID_2_)" fill="#7F7086" d="M140,416.2c0.7,2.3-0.1,4.6-1.4,6.2c-6.9,6.899-17,6.3-25.7,8.899
		c-0.8-0.2-1.6-0.3-2.2-1.2c1.9-7.5,10.2-12.899,16.8-15.6C131.2,413.3,137.8,411.3,140,416.2L140,416.2z"/>
	<path clip-path="url(#SVGID_2_)" fill="#7F7086" d="M202.6,428.7c-0.1,5.7-7,6.1-10,10.5c-3.899,1.3-9.6,4-13,0.3
		c-0.1-3.6,3.1-6.2,5.8-8.2c4.9-2.6,10.6-6.2,16.5-3.3L202.6,428.7L202.6,428.7z"/>
	<path clip-path="url(#SVGID_2_)" fill="#7F7086" d="M219.7,431.1c1.199,1.301,1.8,3.2,1.199,5C215.7,444.8,205.8,447.7,195.9,446.7
		c-0.9-0.7-2.4-0.601-2.9-1.9c0.5-4.7,5.3-7.399,8.7-9.899C207,431.9,213.399,428.2,219.7,431.1L219.7,431.1z"/>
	<path clip-path="url(#SVGID_2_)" fill="#7F7086" d="M243,431.8c1.899,1.7,2.2,4.5,1.6,7c-3,7.9-10.899,15.7-19.899,15.8
		c-1.8,0-3.601-0.699-4.5-2.199c-1.7-7.9,3.6-15.101,10.3-19.4C234,431.1,239.1,429.3,243,431.8L243,431.8z"/>
</g>
</svg>
