<?xml version="1.0" standalone="no"?>
<!DOCTYPE svg PUBLIC "-//W3C//DTD SVG 20010904//EN"
 "http://www.w3.org/TR/2001/REC-SVG-20010904/DTD/svg10.dtd">
<svg version="1.0" xmlns="http://www.w3.org/2000/svg"
 width="980.000000pt" height="980.000000pt" viewBox="0 0 980.000000 980.000000"
 preserveAspectRatio="xMidYMid meet">
<metadata>
Created by potrace 1.16, written by Peter Selinger 2001-2019
</metadata>
<g transform="translate(0.000000,980.000000) scale(0.100000,-0.100000)"
fill="#000000" stroke="none">
<path d="M4856 9029 c-10 -6 -29 -36 -42 -66 -14 -30 -38 -71 -54 -91 -16 -21
-36 -57 -46 -82 -9 -25 -30 -62 -46 -83 -16 -20 -40 -61 -53 -90 -13 -29 -34
-67 -48 -83 -14 -17 -37 -55 -50 -85 -13 -30 -40 -76 -59 -101 -20 -25 -38
-59 -42 -75 -4 -15 -21 -45 -37 -65 -16 -21 -42 -66 -58 -100 -15 -35 -36 -70
-46 -78 -10 -8 -32 -46 -50 -85 -17 -38 -44 -84 -59 -102 -14 -17 -33 -50 -41
-73 -8 -23 -28 -58 -44 -79 -16 -20 -40 -61 -54 -91 -13 -30 -38 -72 -55 -93
-17 -21 -38 -60 -47 -86 -8 -26 -28 -60 -44 -75 -16 -15 -37 -49 -46 -74 -10
-26 -31 -64 -47 -85 -16 -20 -41 -63 -54 -94 -14 -31 -37 -70 -51 -87 -14 -16
-35 -54 -48 -83 -13 -29 -37 -70 -53 -90 -16 -21 -37 -58 -46 -81 -9 -24 -31
-62 -49 -84 -42 -52 -42 -101 1 -183 17 -33 39 -91 48 -130 9 -38 32 -97 49
-130 18 -33 42 -97 53 -142 11 -45 32 -99 46 -120 14 -21 35 -76 47 -123 26
-106 87 -214 130 -229 24 -8 59 -3 187 29 104 26 210 44 313 54 90 9 193 26
240 40 265 76 357 59 404 -74 9 -25 29 -62 46 -82 16 -21 42 -66 58 -100 15
-35 36 -70 46 -78 10 -8 31 -43 46 -78 16 -34 41 -79 57 -100 16 -20 35 -53
42 -72 7 -19 26 -52 42 -72 16 -21 41 -66 57 -100 15 -35 36 -70 46 -78 10 -8
34 -49 52 -90 19 -41 45 -86 58 -100 13 -14 31 -45 40 -70 9 -25 29 -61 45
-82 16 -20 40 -60 53 -90 13 -29 36 -68 51 -86 16 -18 37 -55 48 -84 10 -28
34 -68 51 -89 18 -20 40 -60 50 -87 10 -28 28 -58 39 -69 12 -10 34 -47 50
-82 16 -35 43 -80 58 -100 16 -20 36 -56 44 -79 9 -24 28 -58 42 -75 15 -18
42 -64 59 -102 18 -39 40 -77 50 -85 10 -8 31 -43 46 -78 16 -34 42 -79 58
-100 16 -20 33 -50 37 -65 4 -16 22 -50 42 -75 19 -25 46 -70 59 -100 13 -29
35 -68 49 -86 14 -17 35 -56 47 -86 16 -40 28 -56 43 -58 18 -3 30 13 72 90
29 56 56 123 66 168 9 40 32 101 50 134 19 34 41 93 50 131 10 39 30 93 46
121 16 29 38 86 49 128 24 94 42 123 89 143 46 19 139 12 230 -17 60 -19 178
-37 387 -60 55 -6 151 -25 212 -42 109 -30 113 -31 133 -13 24 22 19 53 -22
112 -15 23 -37 63 -48 88 -11 25 -33 62 -49 83 -16 20 -39 62 -50 93 -12 30
-34 68 -51 84 -16 15 -37 50 -45 76 -9 26 -30 65 -47 86 -16 21 -41 62 -53 90
-13 29 -37 70 -53 90 -16 21 -37 58 -46 83 -10 25 -28 56 -41 70 -13 14 -38
56 -55 94 -17 38 -43 84 -59 102 -16 18 -34 50 -41 71 -7 21 -25 55 -42 76
-16 21 -39 59 -50 85 -11 26 -34 63 -49 83 -16 20 -42 65 -57 100 -16 35 -39
72 -50 83 -12 10 -31 43 -42 74 -11 30 -36 72 -54 93 -18 21 -39 57 -46 80 -8
23 -27 58 -43 78 -16 20 -40 60 -54 89 -13 30 -37 70 -53 91 -16 20 -37 57
-45 83 -9 25 -31 63 -49 84 -18 22 -43 65 -55 96 -12 31 -32 65 -43 75 -11 10
-33 46 -49 81 -16 34 -41 79 -57 100 -16 20 -35 53 -42 72 -7 19 -26 52 -42
73 -16 20 -41 63 -54 94 -14 32 -38 71 -53 89 -16 17 -36 55 -47 84 -10 28
-32 68 -49 88 -17 21 -39 57 -49 81 -10 25 -30 61 -46 80 -15 20 -41 65 -57
101 -17 36 -40 73 -51 84 -12 10 -31 44 -42 75 -12 31 -32 67 -45 81 -13 14
-36 52 -51 85 -15 33 -38 73 -52 89 -13 17 -34 54 -47 83 -13 29 -37 70 -54
90 -17 21 -37 58 -45 81 -9 24 -28 58 -42 75 -15 18 -42 64 -59 102 -18 39
-40 77 -50 85 -10 8 -31 44 -47 80 -16 36 -38 74 -48 85 -11 11 -30 45 -44 76
-13 30 -36 69 -50 86 -14 17 -39 59 -55 94 -15 35 -38 72 -49 83 -12 10 -31
44 -42 75 -12 31 -35 73 -51 94 -17 21 -40 59 -51 85 -12 26 -36 67 -55 91
-18 24 -38 62 -45 83 -19 65 -81 96 -132 67z"/>
<path d="M3129 6033 c-18 -27 -40 -57 -49 -68 -9 -11 -25 -40 -34 -65 -10 -25
-30 -61 -46 -82 -16 -20 -40 -60 -53 -90 -13 -29 -36 -67 -50 -84 -14 -17 -35
-55 -47 -86 -11 -30 -33 -67 -50 -83 -16 -15 -37 -50 -46 -78 -9 -27 -29 -63
-44 -81 -16 -17 -40 -58 -54 -90 -14 -32 -39 -75 -56 -96 -17 -21 -37 -58 -46
-81 -8 -24 -26 -55 -39 -69 -13 -14 -37 -54 -53 -90 -16 -36 -41 -79 -55 -96
-14 -16 -37 -57 -52 -90 -14 -32 -37 -70 -50 -84 -13 -14 -31 -45 -40 -70 -9
-25 -29 -62 -46 -82 -16 -21 -42 -66 -58 -100 -16 -35 -38 -71 -49 -81 -11
-10 -31 -44 -43 -75 -12 -31 -37 -74 -54 -94 -18 -21 -37 -56 -44 -78 -6 -21
-28 -60 -47 -86 -20 -26 -44 -67 -55 -92 -11 -24 -33 -61 -49 -81 -16 -21 -36
-57 -46 -82 -9 -24 -30 -61 -46 -81 -16 -21 -41 -66 -57 -100 -15 -35 -36 -70
-46 -78 -10 -8 -31 -43 -46 -78 -16 -34 -41 -79 -57 -100 -16 -20 -37 -57 -46
-82 -10 -25 -28 -56 -41 -70 -13 -14 -36 -52 -50 -84 -15 -33 -38 -73 -51 -89
-14 -17 -39 -60 -55 -96 -17 -36 -41 -77 -54 -91 -13 -14 -31 -45 -40 -70 -9
-25 -29 -61 -45 -82 -16 -20 -40 -61 -54 -92 -14 -30 -38 -73 -54 -93 -16 -21
-37 -58 -46 -82 -9 -24 -32 -61 -50 -82 -18 -22 -38 -56 -44 -77 -7 -22 -27
-59 -45 -83 -19 -24 -43 -65 -55 -91 -11 -26 -32 -63 -46 -81 -14 -18 -36 -58
-50 -88 -13 -30 -35 -69 -49 -85 -14 -17 -37 -57 -52 -90 -14 -32 -37 -70 -50
-84 -13 -14 -35 -52 -50 -85 -14 -33 -34 -69 -45 -80 -10 -11 -32 -49 -48 -85
-16 -36 -39 -73 -50 -83 -11 -10 -31 -44 -43 -75 -12 -31 -37 -74 -55 -96 -18
-21 -40 -59 -49 -84 -8 -26 -29 -63 -45 -83 -36 -46 -82 -146 -78 -173 7 -47
-28 -46 1436 -46 1356 0 1384 0 1421 20 22 11 49 32 60 47 12 15 39 51 61 78
22 28 58 74 80 103 22 28 45 52 49 52 5 0 20 17 32 37 12 21 39 54 58 74 20
20 57 63 83 95 26 33 67 82 90 109 49 59 138 195 138 212 0 12 -44 68 -123
155 -23 26 -64 74 -92 108 -27 34 -68 83 -91 108 -22 26 -51 63 -64 82 -13 19
-40 54 -59 77 -20 23 -58 69 -86 103 -27 33 -71 82 -97 108 -40 41 -47 55 -53
103 -8 63 6 108 55 169 16 20 39 59 50 85 11 26 33 64 49 84 15 20 38 59 50
86 12 28 33 61 46 76 14 14 36 54 50 89 14 35 38 78 53 95 16 16 38 53 49 81
11 28 36 71 55 96 20 25 38 59 42 75 4 15 21 45 37 65 16 21 42 66 58 100 15
35 36 70 46 78 10 8 34 49 52 90 19 41 45 86 58 100 13 14 31 45 41 70 9 25
30 62 46 83 16 21 39 58 50 84 11 25 35 65 53 89 18 24 40 65 49 92 9 27 30
61 46 77 16 16 37 50 45 76 9 26 30 65 47 86 17 21 42 63 55 93 14 30 37 70
53 90 16 20 37 56 46 81 10 24 31 60 47 79 15 19 39 61 52 94 13 32 35 70 49
85 13 14 36 53 51 86 14 33 34 69 45 80 23 25 100 173 100 192 0 7 -12 19 -26
25 -36 17 -242 -5 -365 -38 -52 -14 -116 -29 -143 -35 -54 -10 -357 -39 -412
-39 -43 0 -79 35 -88 85 -4 19 -22 64 -41 99 -19 36 -43 102 -55 148 -11 45
-32 100 -45 121 -14 20 -36 78 -50 128 -13 50 -35 110 -50 134 -14 24 -32 72
-41 107 -9 35 -21 69 -26 76 -20 24 -47 12 -79 -35z"/>
<path d="M7300 3337 c-34 -17 -115 -178 -140 -279 -11 -44 -33 -104 -49 -132
-16 -28 -36 -85 -46 -126 -10 -41 -32 -102 -50 -135 -18 -33 -40 -94 -50 -135
-19 -88 -51 -147 -102 -189 l-38 -31 -1617 0 c-1026 0 -1626 -4 -1642 -10 -22
-8 -26 -16 -26 -50 0 -33 8 -49 48 -95 26 -30 70 -82 97 -116 28 -33 64 -77
81 -97 17 -20 45 -57 62 -81 38 -52 94 -119 143 -169 19 -20 45 -51 58 -69 12
-18 35 -46 51 -62 32 -31 36 -53 20 -96 -11 -28 -73 -115 -135 -187 -22 -26
-62 -75 -90 -109 -27 -33 -66 -77 -85 -97 -20 -20 -44 -50 -55 -67 -18 -30
-64 -85 -157 -191 -53 -60 -63 -105 -29 -124 14 -7 985 -10 3066 -10 2711 0
3049 2 3075 15 18 9 30 24 30 35 0 29 -45 125 -79 167 -16 21 -39 63 -51 94
-11 31 -30 65 -42 75 -11 11 -33 46 -48 79 -15 33 -39 74 -53 91 -14 17 -33
50 -43 75 -9 24 -30 61 -46 82 -16 20 -41 63 -54 95 -14 31 -37 69 -50 83 -14
15 -36 53 -49 85 -13 33 -37 75 -53 94 -16 19 -39 57 -51 84 -12 28 -33 64
-46 82 -13 17 -35 56 -48 85 -13 30 -36 69 -51 87 -16 18 -37 56 -48 85 -11
28 -32 66 -48 82 -16 17 -38 55 -50 85 -12 30 -32 66 -45 80 -13 14 -35 51
-49 82 -13 32 -38 75 -55 95 -17 21 -37 58 -46 83 -9 25 -27 56 -40 70 -13 14
-39 59 -58 100 -18 41 -42 82 -52 90 -10 8 -31 43 -46 78 -38 84 -123 180
-169 191 -19 5 -93 14 -165 20 -77 7 -187 26 -270 46 -91 22 -196 39 -300 49
-88 8 -167 17 -175 20 -8 3 -26 0 -40 -7z"/>
</g>
</svg>
