<?xml version="1.0" standalone="no"?>
<!DOCTYPE svg PUBLIC "-//W3C//DTD SVG 20010904//EN"
 "http://www.w3.org/TR/2001/REC-SVG-20010904/DTD/svg10.dtd">
<svg version="1.0" xmlns="http://www.w3.org/2000/svg"
 width="620.000000pt" height="620.000000pt" viewBox="0 0 620.000000 620.000000"
 preserveAspectRatio="xMidYMid meet">
<metadata>
Created by potrace 1.16, written by Peter Selinger 2001-2019
</metadata>
<g transform="translate(0.000000,620.000000) scale(0.100000,-0.100000)"
fill="#000000" stroke="none">
<path d="M3070 5708 c-18 -22 -90 -146 -90 -157 0 -5 -11 -22 -24 -38 -13 -15
-31 -44 -40 -63 -8 -19 -34 -64 -56 -100 -22 -36 -49 -84 -60 -107 -11 -23
-24 -45 -29 -47 -5 -3 -21 -29 -35 -58 -15 -29 -45 -82 -66 -118 -22 -36 -47
-81 -56 -100 -9 -19 -25 -46 -35 -59 -11 -13 -29 -43 -40 -65 -22 -45 -61
-112 -96 -167 -13 -18 -23 -38 -23 -43 0 -5 -11 -23 -24 -41 -13 -17 -31 -47
-40 -66 -9 -19 -34 -63 -56 -99 -22 -36 -47 -81 -56 -100 -9 -19 -25 -45 -37
-58 -26 -28 -26 -80 1 -124 10 -18 24 -54 31 -80 6 -26 22 -68 36 -94 14 -26
25 -57 25 -69 0 -12 11 -43 25 -70 14 -26 30 -68 36 -94 5 -25 23 -67 39 -93
35 -56 54 -60 162 -29 36 10 115 24 175 30 59 7 142 21 183 32 41 12 100 22
131 23 66 1 90 -15 121 -79 10 -22 36 -69 58 -105 21 -36 47 -81 57 -100 10
-19 28 -48 40 -63 13 -16 23 -34 23 -40 0 -7 12 -30 27 -52 32 -47 62 -100 97
-172 14 -28 30 -54 36 -58 7 -4 20 -26 31 -49 11 -22 37 -70 59 -106 22 -36
49 -84 60 -107 11 -23 25 -45 31 -49 6 -4 20 -27 31 -53 11 -25 27 -53 34 -62
14 -15 43 -68 90 -161 14 -26 29 -50 35 -53 5 -4 21 -31 33 -60 13 -29 29 -55
35 -59 6 -4 20 -26 31 -49 33 -66 64 -121 87 -153 11 -16 28 -45 37 -64 38
-79 73 -135 85 -135 15 0 81 122 81 150 0 11 13 47 29 81 16 34 32 76 36 95 4
19 18 57 31 84 13 28 28 69 34 92 20 82 77 100 202 64 38 -11 119 -25 180 -31
62 -6 146 -20 186 -31 118 -33 126 -17 57 101 -25 41 -54 93 -65 116 -10 22
-28 52 -39 65 -10 13 -26 40 -35 59 -9 19 -34 64 -56 100 -22 36 -49 84 -59
106 -11 23 -25 45 -31 49 -6 4 -21 28 -32 54 -10 25 -26 53 -34 62 -8 8 -25
35 -37 60 -51 95 -79 145 -92 159 -7 8 -20 31 -29 50 -9 19 -34 64 -56 100
-22 36 -49 84 -60 107 -11 23 -24 45 -29 47 -5 3 -20 29 -35 58 -15 29 -42 78
-61 108 -19 30 -46 78 -59 107 -14 28 -30 54 -36 58 -7 4 -20 26 -31 49 -10
22 -37 70 -59 106 -22 36 -49 83 -60 106 -11 22 -28 52 -39 65 -10 13 -26 40
-35 59 -9 19 -34 64 -56 100 -22 36 -49 84 -59 106 -11 23 -24 45 -31 49 -6 4
-22 31 -34 60 -13 29 -29 55 -35 59 -6 4 -20 26 -31 49 -31 61 -66 125 -92
166 -33 51 -54 88 -83 148 -14 28 -32 56 -39 62 -8 7 -20 26 -27 44 -7 18 -22
45 -33 61 -22 33 -54 90 -86 153 -11 23 -25 45 -31 49 -6 4 -22 30 -35 59 -12
29 -28 56 -33 60 -6 3 -21 27 -35 53 -52 104 -77 146 -89 154 -18 12 -45 10
-57 -4z"/>
<path d="M1967 3798 c-55 -86 -76 -121 -93 -158 -9 -19 -26 -48 -38 -65 -11
-16 -29 -46 -39 -65 -10 -19 -35 -64 -57 -100 -22 -36 -47 -81 -56 -100 -9
-19 -25 -46 -35 -59 -11 -13 -29 -43 -40 -65 -22 -45 -61 -112 -96 -167 -13
-18 -23 -39 -23 -46 0 -6 -10 -24 -23 -40 -13 -15 -33 -46 -44 -68 -50 -97
-72 -136 -92 -161 -12 -15 -21 -32 -21 -38 0 -6 -12 -29 -27 -51 -27 -39 -52
-82 -90 -155 -10 -19 -30 -53 -45 -74 -16 -21 -28 -44 -28 -51 0 -7 -10 -25
-22 -41 -13 -15 -33 -48 -46 -74 -43 -84 -69 -128 -90 -155 -12 -15 -22 -33
-22 -39 0 -6 -12 -29 -27 -51 -30 -43 -60 -96 -92 -161 -11 -22 -29 -52 -40
-65 -10 -13 -26 -40 -35 -59 -9 -19 -34 -64 -56 -100 -22 -36 -49 -84 -60
-107 -11 -23 -25 -45 -31 -49 -6 -4 -20 -27 -31 -53 -11 -25 -27 -53 -34 -62
-13 -14 -37 -58 -87 -154 -11 -22 -31 -53 -44 -68 -13 -16 -23 -34 -23 -40 0
-7 -10 -28 -23 -46 -34 -54 -74 -122 -96 -166 -11 -22 -31 -55 -45 -74 -15
-19 -26 -40 -26 -47 0 -7 -11 -25 -24 -41 -13 -15 -26 -38 -30 -50 -4 -12 -18
-38 -32 -59 -14 -20 -32 -55 -41 -77 -15 -38 -15 -41 2 -53 16 -12 172 -14
891 -14 494 0 883 4 896 9 13 5 51 42 84 83 32 40 107 129 165 198 113 133
174 223 166 243 -3 6 -54 69 -114 138 -59 70 -126 150 -148 179 -41 53 -74 92
-125 147 -40 43 -42 107 -5 151 13 16 33 50 44 75 11 24 24 48 30 51 6 4 19
26 30 50 10 24 23 46 29 50 6 3 23 30 37 59 37 72 70 134 92 165 10 15 26 43
36 62 9 19 33 60 52 90 19 30 46 78 59 107 14 28 30 54 36 58 6 4 22 30 36 58
13 29 40 77 59 107 19 30 45 78 59 106 13 28 29 54 35 58 6 4 20 26 31 49 11
23 38 71 60 107 22 36 48 84 59 106 11 23 25 45 31 49 6 4 21 28 32 54 10 25
28 55 38 66 10 11 21 31 25 45 4 14 18 39 30 55 12 17 32 50 44 74 22 43 22
46 5 58 -23 17 -103 10 -239 -22 -107 -25 -333 -50 -364 -40 -11 3 -24 20 -31
38 -6 18 -22 52 -35 77 -13 25 -26 63 -30 85 -4 22 -18 60 -31 85 -12 25 -31
72 -42 105 -51 156 -64 185 -83 185 -4 0 -23 -24 -42 -52z"/>
<path d="M4608 2103 c-23 -27 -78 -145 -78 -168 0 -11 -14 -47 -30 -80 -16
-33 -30 -69 -30 -80 0 -11 -13 -47 -28 -80 -16 -33 -32 -78 -36 -100 -8 -43
-36 -94 -63 -116 -13 -12 -199 -15 -1057 -19 l-1041 -5 -3 -27 c-3 -21 10 -43
55 -97 32 -38 90 -108 128 -156 82 -101 104 -128 145 -174 16 -19 30 -42 30
-51 0 -18 -57 -108 -94 -147 -21 -23 -50 -57 -105 -123 -16 -19 -61 -73 -100
-118 -73 -86 -80 -99 -59 -120 19 -19 3867 -17 3892 1 16 12 17 18 7 49 -6 19
-22 49 -35 67 -13 18 -30 47 -37 64 -7 18 -23 45 -36 60 -13 16 -23 34 -23 41
0 7 -11 28 -26 47 -14 19 -34 52 -45 74 -22 44 -62 112 -96 166 -13 18 -23 39
-23 45 0 6 -9 23 -21 38 -21 26 -47 73 -95 168 -14 26 -29 50 -35 53 -5 4 -21
31 -33 60 -13 29 -29 55 -35 59 -6 4 -20 26 -31 49 -31 61 -66 125 -92 166
-33 51 -54 88 -84 148 -14 29 -30 56 -36 59 -6 4 -19 25 -29 48 -10 22 -35 60
-56 84 l-38 42 -105 11 c-58 6 -138 19 -178 30 -41 11 -119 24 -175 29 -56 6
-114 13 -128 16 -17 3 -30 -1 -41 -13z"/>
</g>
</svg>
